<svg xmlns="http://www.w3.org/2000/svg" width="56" height="56" viewBox="0 0 56 56" role="img" aria-label="LinkedIn">
  <circle cx="28" cy="28" r="26" fill="#322921" stroke="#B24E30" stroke-width="1.5"/>
  <path fill="#FAF6ED" transform="translate(16,16)" d="M4.98 3.5C4.98 4.88 3.87 6 2.49 6 1.12 6 0 4.88 0 3.5 0 2.12 1.12 1 2.5 1s2.48 1.12 2.48 2.5zM.24 8h4.52v14H.24V8zm7.5 0h4.33v1.92h.06c.6-1.14 2.07-2.34 4.26-2.34 4.56 0 5.4 3 5.4 6.9V22h-4.5v-6.6c0-1.57-.03-3.6-2.2-3.6-2.2 0-2.53 1.72-2.53 3.5V22h-4.5V8z"/>
</svg>
